<svg xmlns="http://www.w3.org/2000/svg" width="1435.257" height="1080.001" viewBox="0 0 1435.257 1080.001">
  <path id="Exclusion_1" data-name="Exclusion 1" d="M959.421,1080H0V0H959.421V549.268c-2.221-.172-4.556-.26-6.941-.26a83.243,83.243,0,0,0-17.613,1.748,55.232,55.232,0,0,0-14.5,5.245,49.14,49.14,0,0,0-11.2,8.159,40.816,40.816,0,0,0-7.705,10.489L931.5,588.894a18.59,18.59,0,0,1,7.057-7.382,20.626,20.626,0,0,1,10.3-2.46c3.436,0,6.051.654,7.77,1.943a6.306,6.306,0,0,1,2.59,5.309,12.092,12.092,0,0,1-2.331,6.6,36.321,36.321,0,0,1-6.993,7.381l-41.181,35.224v23.569h50.712V1080ZM789.827,447.739a123.422,123.422,0,0,0-27.778,3.043,104.48,104.48,0,0,0-24.8,9.13,95.894,95.894,0,0,0-20.785,14.536,90.494,90.494,0,0,0-15.735,19.263,88.475,88.475,0,0,0-9.906,23.018,102.468,102.468,0,0,0,0,51.606,88.491,88.491,0,0,0,9.906,23.019,90.5,90.5,0,0,0,15.735,19.263,95.9,95.9,0,0,0,20.785,14.537,104.513,104.513,0,0,0,24.8,9.13,128.308,128.308,0,0,0,55.555,0,104.5,104.5,0,0,0,24.8-9.13,95.9,95.9,0,0,0,20.785-14.537,90.5,90.5,0,0,0,15.735-19.263,88.491,88.491,0,0,0,9.906-23.019,102.468,102.468,0,0,0,0-51.606,88.475,88.475,0,0,0-9.906-23.018,90.5,90.5,0,0,0-15.735-19.263A95.894,95.894,0,0,0,842.4,459.913a104.486,104.486,0,0,0-24.8-9.13A123.423,123.423,0,0,0,789.827,447.739Zm-190.106,0A120.9,120.9,0,0,0,572.4,450.75a103.455,103.455,0,0,0-24.475,9.033,93.843,93.843,0,0,0-20.558,14.439,89.705,89.705,0,0,0-15.572,19.231,88.721,88.721,0,0,0-9.81,23.083,104.983,104.983,0,0,0,0,51.995,88.731,88.731,0,0,0,9.81,23.083,89.7,89.7,0,0,0,15.572,19.231,93.848,93.848,0,0,0,20.558,14.44,103.442,103.442,0,0,0,24.475,9.032,120.923,120.923,0,0,0,27.324,3.011A129.283,129.283,0,0,0,624.715,635,102.473,102.473,0,0,0,646.86,628a90.632,90.632,0,0,0,18.907-11.4,87.26,87.26,0,0,0,15.281-15.54L642.456,566.62a69.575,69.575,0,0,1-8.789,9.292,52.2,52.2,0,0,1-9.534,6.637,44.651,44.651,0,0,1-10.279,3.982,45.621,45.621,0,0,1-11.023,1.327,46.5,46.5,0,0,1-17.289-3.076,37.892,37.892,0,0,1-13.533-9.227,40.258,40.258,0,0,1-8.741-14.407,60.918,60.918,0,0,1,0-37.231,40.257,40.257,0,0,1,8.741-14.407,37.887,37.887,0,0,1,13.533-9.227,46.5,46.5,0,0,1,17.289-3.075,45.615,45.615,0,0,1,11.023,1.327,44.65,44.65,0,0,1,10.279,3.982,52.2,52.2,0,0,1,9.534,6.637,69.567,69.567,0,0,1,8.789,9.292L681.047,484a87.251,87.251,0,0,0-15.281-15.54,90.659,90.659,0,0,0-18.907-11.4,102.475,102.475,0,0,0-22.145-6.993A129.286,129.286,0,0,0,599.721,447.739ZM1003.5,659.083H959.421V549.268a65.374,65.374,0,0,1,15.278,2.914,45.827,45.827,0,0,1,12.357,6.15,31.469,31.469,0,0,1,9.809,10.878,29.714,29.714,0,0,1,3.27,13.986,30.5,30.5,0,0,1-1.1,8.126,33.616,33.616,0,0,1-3.3,7.8c-2.921,5.069-8.411,11.213-16.317,18.259l-14.244,12.173H1003.5v29.525h0Zm117.327-21.757a123.421,123.421,0,0,1-27.778-3.043,104.51,104.51,0,0,1-24.8-9.129,95.9,95.9,0,0,1-20.785-14.537,90.5,90.5,0,0,1-15.735-19.263,88.483,88.483,0,0,1-9.906-23.019,102.461,102.461,0,0,1,0-51.606,88.467,88.467,0,0,1,9.906-23.018,90.488,90.488,0,0,1,15.735-19.263,95.906,95.906,0,0,1,20.785-14.536,104.489,104.489,0,0,1,24.8-9.13,128.3,128.3,0,0,1,55.555,0,104.5,104.5,0,0,1,24.8,9.13,95.9,95.9,0,0,1,20.785,14.536,90.488,90.488,0,0,1,15.734,19.263,88.466,88.466,0,0,1,9.906,23.018,102.459,102.459,0,0,1,0,51.606,88.481,88.481,0,0,1-9.906,23.019,90.5,90.5,0,0,1-15.734,19.263,95.9,95.9,0,0,1-20.785,14.537,104.5,104.5,0,0,1-24.8,9.129A123.417,123.417,0,0,1,1120.829,637.327Zm0-140.118a41.571,41.571,0,0,0-10.846,1.392,37.913,37.913,0,0,0-9.744,4.176,38.3,38.3,0,0,0-8.256,6.734,43.055,43.055,0,0,0-6.378,9.065,44.744,44.744,0,0,0-4.079,11.1,61.438,61.438,0,0,0,0,25.706,44.742,44.742,0,0,0,4.079,11.1,43.064,43.064,0,0,0,6.378,9.065,38.168,38.168,0,0,0,18,10.911,42.944,42.944,0,0,0,21.692,0,38.166,38.166,0,0,0,18-10.911,43.068,43.068,0,0,0,6.378-9.065,44.733,44.733,0,0,0,4.079-11.1,61.433,61.433,0,0,0,0-25.706,44.731,44.731,0,0,0-4.079-11.1,43.058,43.058,0,0,0-6.378-9.065,38.292,38.292,0,0,0-8.256-6.734,37.907,37.907,0,0,0-9.745-4.176A41.569,41.569,0,0,0,1120.829,497.209Zm314.427,135.976h0l-70.706,0-45.325-60.089L1305.5,588.376v44.807h-60.089v-181.3H1305.5v65.787l59.57-65.787h66.562l-72.519,79.773,76.145,101.528ZM789.827,587.858a41.565,41.565,0,0,1-10.845-1.392,38.165,38.165,0,0,1-18-10.91,43.075,43.075,0,0,1-6.378-9.065,44.728,44.728,0,0,1-4.079-11.1,61.433,61.433,0,0,1,0-25.706,44.728,44.728,0,0,1,4.079-11.1,43.058,43.058,0,0,1,6.378-9.065,38.3,38.3,0,0,1,8.256-6.734,37.909,37.909,0,0,1,9.745-4.176,42.947,42.947,0,0,1,21.691,0,37.9,37.9,0,0,1,9.744,4.176,38.3,38.3,0,0,1,8.256,6.734,43.06,43.06,0,0,1,6.378,9.065,44.732,44.732,0,0,1,4.079,11.1,61.433,61.433,0,0,1,0,25.706,44.733,44.733,0,0,1-4.079,11.1,43.078,43.078,0,0,1-6.378,9.065,38.167,38.167,0,0,1-18,10.91A41.564,41.564,0,0,1,789.827,587.858Z" transform="translate(0 0)" fill="#fff"/>
</svg>
