<svg id="Laag_1" data-name="Laag 1" xmlns="http://www.w3.org/2000/svg" viewBox="0 0 853.85 788.21"><defs><style>.cls-1{fill:#10db87;}.cls-2{fill:#86ecc2;}</style></defs><title>homebackground</title><path class="cls-1" d="M533,147.8v-1.22c.81,0,1.62-.08,2.43-.06,12.68.31,25.35.3,38,.82,7.94.32,15.9.28,23.85.35,14.92.14,29.84.6,44.76.59.27.68.85.74,1.47.73l5.13-.07c9.45.14,18.9.24,28.34.43,13.09.26,26.19.58,39.28.76,10.32.15,20.64.44,31,.5,14.17.07,28.34.49,42.51.75,8.17.15,16.33.3,24.49.4,6.37.08,12.71-.26,18.72,2.78,3.44,1.73,7.38,2.33,11,3.82,4.89,2,10.13,3.08,15,5.16,3.93,1.67,8.18,2.5,12.16,4.16,4.89,2,10.13,3.08,15,5.16,3.94,1.67,8.18,2.52,12.17,4.16,5,2,10.37,3.17,15.4,5.27,3.83,1.59,7.91,2.47,11.77,4,5,2,10.38,3.18,15.42,5.27,4.26,1.77,8.84,2.66,13.13,4.47,4.49,1.9,9.32,2.91,13.86,4.79s9.11,2.72,13.51,4.6,9.09,2.79,13.5,4.65,9.24,2.77,13.71,4.67c4.3,1.84,8.95,2.75,13.3,4.59,4.57,1.91,9.49,2.86,14.09,4.79s9.75,2.93,14.47,5c4.11,1.77,8.57,2.62,12.74,4.36,4.75,2,9.86,3,14.64,5,4,1.72,8.41,2.63,12.54,4.27,5.23,2.07,10.74,3.38,16,5.48,4,1.62,8.32,2.51,12.36,4.22,4.44,1.87,9.21,2.84,13.69,4.72s9.23,2.76,13.7,4.66,9,3.1,13.51,4.6c7.15,2.37,14.17,5.11,21.4,7.2a2.15,2.15,0,0,1,1.58,1.12q5.19,11.73,10.42,23.43c5.15,11.63,10.26,23.27,15.43,34.89,3.18,7.13,6.47,14.21,9.64,21.34,5.14,11.56,10.22,23.14,15.36,34.69,3.19,7.2,6.48,14.35,9.69,21.54q8.12,18.16,16.17,36.35,7.14,16,14.28,32.09c3.15,7.07,6.36,14.11,9.51,21.18,4.51,10.14,9,20.31,13.48,30.44,3.15,7.07,6.39,14.09,9.54,21.15,4.42,10,8.78,20,13.21,29.9,3.19,7.2,6.47,14.36,9.68,21.55,5.38,12,10.71,24.1,16.08,36.14q7.74,17.32,15.5,34.65,4.2,9.39,8.39,18.79,6,13.47,12,26.94l5.85,13.21L590.7,934.73c-.42-4.75-.93-9.41-1.22-14.08-.46-7.43-1.05-14.85-1.62-22.27s-1.08-14.71-1.62-22.06-1-14.84-1.62-22.26c-.44-5.61-.86-11.23-1.21-16.84-.57-9.37-1.37-18.73-2-28.09-.53-7.28-1-14.57-1.64-21.85-.7-8.15-1.05-16.33-1.64-24.49-.48-6.75-1.11-13.49-1.6-20.23s-.77-13.67-1.36-20.49c-.69-7.94-1.19-15.9-1.86-23.84-.61-7.35-1.08-14.71-1.63-22.06s-1.11-15-1.61-22.46c-.42-6.43-1-12.84-1.31-19.27-.28-5.29-.76-10.56-1.14-15.84-.32-4.42-.61-8.84-.94-13.26-.35-4.74-.74-9.48-1.09-14.22-.2-2.75-.34-5.5-.55-8.25-.34-4.53-.74-9.07-1.07-13.6-.35-4.83-.62-9.65-1-14.47-.32-4.27-.74-8.53-1.05-12.8-.36-5-.6-10-1-15.08-.46-6.14-1-12.27-1.49-18.42-.36-4.82-.57-9.65-.91-14.47-.48-6.81-.95-13.63-1.55-20.44-.58-6.61-1-13.22-1.55-19.83-.46-5.68-.82-11.37-1.23-17.05q-.8-11.13-1.62-22.26T551,392.39c-.53-7.42-1.06-14.84-1.63-22.26-.43-5.61-.77-11.23-1.21-16.85-.66-8.22-1.11-16.45-1.68-24.68q-1-14.14-2-28.29c-.35-4.67-.84-9.34-1.17-14-.36-5-.55-10.05-.93-15.07-.45-6-1.07-12-1.51-18-.38-5-.57-10.06-.91-15.08-.48-6.95-1-13.9-1.54-20.85-.38-4.87-.85-9.74-1.2-14.62s-.55-9.79-.92-14.67c-.46-6.15-1.06-12.28-1.52-18.42-.35-4.82-.39-9.66-.94-14.46C533.46,152.68,534,150.16,533,147.8Z" transform="translate(-533.03 -146.52)"/><path class="cls-2" d="M642.1,148.28l5.13-.07c.62,0,1.2,0,1.47.73l-5.13.07C643,149,642.37,149,642.1,148.28Z" transform="translate(-533.03 -146.52)"/></svg>